<?xml version="1.0" standalone="no"?><svg xmlns="http://www.w3.org/2000/svg" viewBox="0 0 1440 320"><path fill="#ffe500" fill-opacity="1" d="M0,128L24,144C48,160,96,192,144,197.3C192,203,240,181,288,192C336,203,384,245,432,261.3C480,277,528,267,576,224C624,181,672,107,720,101.3C768,96,816,160,864,176C912,192,960,160,1008,165.3C1056,171,1104,213,1152,213.3C1200,213,1248,171,1296,160C1344,149,1392,171,1416,181.3L1440,192L1440,0L1416,0C1392,0,1344,0,1296,0C1248,0,1200,0,1152,0C1104,0,1056,0,1008,0C960,0,912,0,864,0C816,0,768,0,720,0C672,0,624,0,576,0C528,0,480,0,432,0C384,0,336,0,288,0C240,0,192,0,144,0C96,0,48,0,24,0L0,0Z"></path></svg>